<svg xmlns="http://www.w3.org/2000/svg" xmlns:svg="http://www.w3.org/2000/svg" id="svg2" width="114" height="114" version="1.1"><metadata id="metadata7"/><g id="layer1"><rect id="rect2987" width="110" height="110" x="2" y="2" style="fill:none;fill-opacity:1;stroke:#3d3d62;stroke-width:4;stroke-miterlimit:4;stroke-opacity:1;stroke-dasharray:none;stroke-dashoffset:0"/></g><g id="layer2"><path id="path2990" d="m 12,12 0,80 10,0 0,10 10,0 10,-10 0,-20 20,0 10,-10 0,-10 -30,0 0,-20 60,0 0,-20 z" style="fill:none;stroke:#3d3d62;stroke-width:2;stroke-linecap:butt;stroke-linejoin:miter;stroke-miterlimit:4;stroke-opacity:1;stroke-dasharray:none"/></g><g id="layer3"><path id="path3761" d="m 12,12 0,70 10,0 0,10 20,0 0,-20 20,0 10,-10 0,-10 -30,0 0,-20 60,0 0,-20 z" style="fill:#3d3d62;fill-opacity:1;stroke:none"/></g></svg>